<svg width="43" height="43" viewBox="0 0 43 43" fill="none" xmlns="http://www.w3.org/2000/svg">
<path d="M29.4097 41.9395H39.3352C40.79 41.9395 41.9692 40.7602 41.9692 39.3054V3.74585C41.9692 2.29108 40.79 1.11182 39.3352 1.11182H3.77564C2.32087 1.11182 1.1416 2.29108 1.1416 3.74585V39.3054C1.1416 40.7602 2.32087 41.9395 3.77564 41.9395H22.9451" stroke="#7F23C7" stroke-opacity="0.92" stroke-width="2.02" stroke-miterlimit="10"/>
<path d="M29.4094 41.9395V25.7783H35.2274L35.8738 19.3138H29.4094V15.4351C29.4094 12.8493 31.3487 12.8493 31.9951 12.8493C32.6416 12.8493 35.8738 12.8493 35.8738 12.8493V7.03127C33.2611 6.76646 22.9449 4.44549 22.9449 15.4351V19.3138H17.7733V25.7783H22.9449V41.9395" stroke="#7F23C7" stroke-opacity="0.92" stroke-width="2.02" stroke-miterlimit="10" stroke-linecap="round" stroke-linejoin="round"/>
</svg>
