<svg width="46" height="46" viewBox="0 0 46 46" fill="none" xmlns="http://www.w3.org/2000/svg">
<path d="M33.4006 1H13.5473C7.14116 1 1.94788 6.19328 1.94788 12.5994V32.4526C1.94788 38.8588 7.14116 44.052 13.5473 44.052H33.4005C39.8066 44.052 44.9999 38.8588 44.9999 32.4526V12.5994C45 6.19328 39.8067 1 33.4006 1Z" stroke="#7F23C7" stroke-opacity="0.92" stroke-width="2.02" stroke-miterlimit="10"/>
<path d="M23.4741 32.918C29.2134 32.918 33.866 28.2654 33.866 22.5261C33.866 16.7868 29.2134 12.1342 23.4741 12.1342C17.7348 12.1342 13.0822 16.7868 13.0822 22.5261C13.0822 28.2654 17.7348 32.918 23.4741 32.918Z" stroke="#7F23C7" stroke-opacity="0.92" stroke-width="2.02" stroke-miterlimit="10"/>
<path d="M36.0927 12.1344C37.3226 12.1344 38.3195 11.1374 38.3195 9.90751C38.3195 8.67766 37.3226 7.68066 36.0927 7.68066C34.8628 7.68066 33.8658 8.67766 33.8658 9.90751C33.8658 11.1374 34.8628 12.1344 36.0927 12.1344Z" fill="black"/>
</svg>
