<svg width="50" height="42" viewBox="0 0 50 42" fill="none" xmlns="http://www.w3.org/2000/svg">
<path d="M47.4658 2.14442C47.4658 2.14442 44.9398 4.1815 41.3952 4.54818C41.3952 4.54818 35.8136 -1.68538 27.8281 3.73336C24.2427 6.25935 23.9168 11.5966 24.528 13.5115C24.528 13.5115 13.6906 14.3671 4.23832 3.28523C4.23832 3.28523 0.00116407 10.6188 7.00876 16.4857C7.00876 16.4857 4.93756 16.8116 2.96873 15.182C2.96873 15.182 2.03814 22.76 10.5126 24.8787C10.5126 24.8787 9.9422 25.8565 6.51985 24.8787C6.51985 24.8787 7.09021 31.0715 15.1572 31.9678C15.1572 31.9678 10.7992 36.4494 1 35.8791C1 35.8791 17.1944 48.0203 34.7134 33.3531C44.4916 25.0417 44.1657 13.0635 44.0027 11.2708C44.0027 11.2708 47.8641 8.3374 48.8669 6.46322C48.8669 6.46322 45.8768 7.44104 43.4323 7.44104C43.4323 7.44084 46.6917 5.72967 47.4658 2.14442Z" stroke="#7F23C7" stroke-opacity="0.92" stroke-width="2.02" stroke-miterlimit="10" stroke-linecap="round" stroke-linejoin="round"/>
</svg>
